<svg width="464" height="350" fill="none" xmlns="http://www.w3.org/2000/svg"><path fill="#fff" d="M0 0h464v350H0z"/><path d="M153.262 64.861c.921-7.503 7.75-12.838 15.253-11.917L399.054 81.25c7.503.92 12.839 7.75 11.917 15.253l-2.594 21.126-257.709-31.643 2.594-21.126z" fill="#66CBFF"/><rect x="154.93" y="51.276" width="259.645" height="182.862" rx="15.968" transform="rotate(7 154.93 51.276)" stroke="#034EA6" stroke-width="4" stroke-miterlimit="10" stroke-linecap="round" stroke-linejoin="round"/><rect x="219.958" y="68.82" width="104.044" height="15.023" rx="7.511" transform="rotate(7 219.958 68.82)" fill="#fff"/><path d="m176.078 153.004 125.796 15.446c7.478.918 14.285-4.4 15.203-11.878.918-7.478-4.4-14.285-11.878-15.203l-125.796-15.446c-7.478-.918-14.285 4.4-15.203 11.878-.918 7.478 4.4 14.285 11.878 15.203z" stroke="#034EA6" stroke-width="4" stroke-miterlimit="10" stroke-linecap="round" stroke-linejoin="round"/><rect x="160.591" y="167.192" width="188.094" height="28.273" rx="13.687" transform="rotate(7 160.591 167.192)" stroke="#034EA6" stroke-width="4" stroke-miterlimit="10" stroke-linecap="round" stroke-linejoin="round"/><circle cx="170.745" cy="70.518" r="7.34" transform="rotate(7 170.745 70.518)" fill="#034EA6"/><circle cx="192.252" cy="73.159" r="7.34" transform="rotate(7 192.252 73.159)" fill="#fff"/><path d="m175.4 139.176 105.266 12.925" stroke="#034EA6" stroke-width="4" stroke-miterlimit="10" stroke-linecap="round" stroke-linejoin="round"/><circle cx="113.213" cy="237.288" r="70.1" transform="rotate(-9.23 113.213 237.288)" fill="#66CBFF"/><circle cx="133.213" cy="218.288" r="70.1" transform="rotate(-9.23 133.213 218.288)" fill="#fff" stroke="#034EA6" stroke-width="4" stroke-miterlimit="10" stroke-linecap="round" stroke-linejoin="round"/><path fill-rule="evenodd" clip-rule="evenodd" d="M149.894 270.495c14.358-4.43 26.898-14.604 33.913-29.218 13.354-27.822 1.625-61.2-26.196-74.554s-61.2-1.625-74.553 26.196a57.14 57.14 0 0 0-.853 1.861c14.244-21.473 42.499-29.704 66.39-18.237 26.121 12.538 37.133 43.877 24.595 69.999a52.235 52.235 0 0 1-23.296 23.953z" fill="#66CBFF"/><circle cx="133.157" cy="217.957" r="55.877" transform="rotate(-9.23 133.157 217.957)" stroke="#034EA6" stroke-width="4" stroke-miterlimit="10" stroke-linecap="round" stroke-linejoin="round"/><path d="m127.692 184.311 5.825 35.846 29.103 20.967" stroke="#034EA6" stroke-width="4" stroke-miterlimit="10" stroke-linecap="round" stroke-linejoin="round"/></svg>